<mxfile host="app.diagrams.net" modified="2023-08-15T15:03:57.475Z" agent="Mozilla/5.0 (Windows NT 10.0; Win64; x64) AppleWebKit/537.36 (KHTML, like Gecko) Chrome/115.0.0.0 Safari/537.36" etag="yR9QO0LtBx5s0-iNRu1R" version="21.6.8" type="device">
  <diagram name="PÃ¡gina-1" id="UER5mgDJ2g4CtjaLHuVk">
    <mxGraphModel dx="2261" dy="782" grid="1" gridSize="10" guides="1" tooltips="1" connect="1" arrows="1" fold="1" page="1" pageScale="1" pageWidth="827" pageHeight="1169" math="0" shadow="0">
      <root>
        <mxCell id="0" />
        <mxCell id="1" parent="0" />
        <mxCell id="Plm5FXUOydwEj75dUL9J-2" value="&lt;p style=&quot;margin:0px;margin-top:4px;text-align:center;&quot;&gt;&lt;span style=&quot;font-size: 19px;&quot;&gt;&lt;b&gt;Produto&lt;/b&gt;&lt;/span&gt;&lt;/p&gt;&lt;hr size=&quot;1&quot;&gt;&lt;p style=&quot;margin: 0px 0px 0px 4px; font-size: 18px;&quot;&gt;&lt;span style=&quot;background-color: initial;&quot;&gt;- produtoDescricao: String&lt;/span&gt;&lt;/p&gt;&lt;p style=&quot;margin: 0px 0px 0px 4px; font-size: 18px;&quot;&gt;&lt;font style=&quot;font-size: 18px;&quot;&gt;- tipoTransporte: TipoTransporte&lt;/font&gt;&lt;/p&gt;&lt;hr style=&quot;font-size: 18px;&quot; size=&quot;1&quot;&gt;&lt;p style=&quot;margin:0px;margin-left:4px;&quot;&gt;&lt;span style=&quot;background-color: initial; font-size: 19px;&quot;&gt;+ constructor(String produtoDescricao, TipoUsuario tipoUsuario)&lt;/span&gt;&lt;/p&gt;&lt;p style=&quot;margin:0px;margin-left:4px;&quot;&gt;&lt;span style=&quot;background-color: initial; font-size: 19px;&quot;&gt;&lt;br&gt;&lt;/span&gt;&lt;/p&gt;&lt;p style=&quot;margin:0px;margin-left:4px;&quot;&gt;&lt;span style=&quot;background-color: initial; font-size: 19px;&quot;&gt;+ setTipoTransporte(TipoTransporte tipoTransporte): void&lt;/span&gt;&lt;br&gt;&lt;/p&gt;&lt;p style=&quot;margin:0px;margin-left:4px;&quot;&gt;&lt;span style=&quot;background-color: initial; font-size: 19px;&quot;&gt;+ transportar():void&lt;/span&gt;&lt;/p&gt;&lt;p style=&quot;margin:0px;margin-left:4px;&quot;&gt;&lt;span style=&quot;background-color: initial; font-size: 19px;&quot;&gt;+ getProdutoNome():String&lt;/span&gt;&lt;/p&gt;" style="verticalAlign=top;align=left;overflow=fill;fontSize=12;fontFamily=Helvetica;html=1;whiteSpace=wrap;" vertex="1" parent="1">
          <mxGeometry x="-200" y="260" width="500" height="240" as="geometry" />
        </mxCell>
        <mxCell id="Plm5FXUOydwEj75dUL9J-12" value="&lt;p style=&quot;margin:0px;margin-top:4px;text-align:center;&quot;&gt;&lt;span style=&quot;font-size: 19px;&quot;&gt;&lt;b&gt;&amp;lt;&amp;lt;Interface&amp;gt;&amp;gt;&lt;/b&gt;&lt;/span&gt;&lt;/p&gt;&lt;p style=&quot;margin:0px;margin-top:4px;text-align:center;&quot;&gt;&lt;span style=&quot;font-size: 19px;&quot;&gt;&lt;b&gt;TipoTransporte&lt;/b&gt;&lt;/span&gt;&lt;/p&gt;&lt;p style=&quot;margin: 0px 0px 0px 4px; font-size: 18px;&quot;&gt;&lt;br&gt;&lt;/p&gt;&lt;hr style=&quot;font-size: 18px;&quot; size=&quot;1&quot;&gt;&lt;p style=&quot;margin:0px;margin-left:4px;&quot;&gt;&lt;font style=&quot;font-size: 19px;&quot;&gt;+ transportar():&amp;nbsp;&lt;/font&gt;&lt;/p&gt;" style="verticalAlign=top;align=left;overflow=fill;fontSize=12;fontFamily=Helvetica;html=1;whiteSpace=wrap;" vertex="1" parent="1">
          <mxGeometry x="642.5" y="110" width="250" height="180" as="geometry" />
        </mxCell>
        <mxCell id="Plm5FXUOydwEj75dUL9J-13" value="&lt;p style=&quot;margin:0px;margin-top:4px;text-align:center;&quot;&gt;&lt;span style=&quot;font-size: 19px;&quot;&gt;&lt;b&gt;TransportarPacote&lt;/b&gt;&lt;/span&gt;&lt;/p&gt;&lt;p style=&quot;margin: 0px 0px 0px 4px; font-size: 18px;&quot;&gt;&lt;br&gt;&lt;/p&gt;&lt;hr style=&quot;font-size: 18px;&quot; size=&quot;1&quot;&gt;&lt;p style=&quot;margin:0px;margin-left:4px;&quot;&gt;&lt;font style=&quot;font-size: 19px;&quot;&gt;+ transportar():void&lt;/font&gt;&lt;/p&gt;" style="verticalAlign=top;align=left;overflow=fill;fontSize=12;fontFamily=Helvetica;html=1;whiteSpace=wrap;" vertex="1" parent="1">
          <mxGeometry x="440" y="500" width="250" height="140" as="geometry" />
        </mxCell>
        <mxCell id="Plm5FXUOydwEj75dUL9J-14" value="&lt;p style=&quot;margin:0px;margin-top:4px;text-align:center;&quot;&gt;&lt;span style=&quot;font-size: 19px;&quot;&gt;&lt;b&gt;TransportarUnidade&lt;/b&gt;&lt;/span&gt;&lt;/p&gt;&lt;p style=&quot;margin: 0px 0px 0px 4px; font-size: 18px;&quot;&gt;&lt;br&gt;&lt;/p&gt;&lt;hr style=&quot;font-size: 18px;&quot; size=&quot;1&quot;&gt;&lt;p style=&quot;margin:0px;margin-left:4px;&quot;&gt;&lt;font style=&quot;font-size: 19px;&quot;&gt;+ transportar():void&lt;/font&gt;&lt;/p&gt;" style="verticalAlign=top;align=left;overflow=fill;fontSize=12;fontFamily=Helvetica;html=1;whiteSpace=wrap;" vertex="1" parent="1">
          <mxGeometry x="870" y="495" width="250" height="145" as="geometry" />
        </mxCell>
        <mxCell id="Plm5FXUOydwEj75dUL9J-21" value="" style="endArrow=none;dashed=1;html=1;dashPattern=1 3;strokeWidth=2;rounded=0;" edge="1" parent="1">
          <mxGeometry width="50" height="50" relative="1" as="geometry">
            <mxPoint x="990" y="495" as="sourcePoint" />
            <mxPoint x="770" y="400" as="targetPoint" />
          </mxGeometry>
        </mxCell>
        <mxCell id="Plm5FXUOydwEj75dUL9J-23" value="" style="endArrow=none;dashed=1;html=1;rounded=0;exitX=0.424;exitY=-0.013;exitDx=0;exitDy=0;exitPerimeter=0;" edge="1" parent="1" target="Plm5FXUOydwEj75dUL9J-22">
          <mxGeometry width="50" height="50" relative="1" as="geometry">
            <mxPoint x="550" y="500.00000000000006" as="sourcePoint" />
            <mxPoint x="770" y="292" as="targetPoint" />
            <Array as="points">
              <mxPoint x="774" y="401.82" />
            </Array>
          </mxGeometry>
        </mxCell>
        <mxCell id="Plm5FXUOydwEj75dUL9J-22" value="" style="triangle;whiteSpace=wrap;html=1;rotation=-90;" vertex="1" parent="1">
          <mxGeometry x="760" y="290" width="15" height="20" as="geometry" />
        </mxCell>
        <mxCell id="Plm5FXUOydwEj75dUL9J-26" value="" style="rhombus;whiteSpace=wrap;html=1;fillColor=#000000;" vertex="1" parent="1">
          <mxGeometry x="310" y="290" width="40" height="50" as="geometry" />
        </mxCell>
        <mxCell id="Plm5FXUOydwEj75dUL9J-27" value="" style="endArrow=classic;html=1;rounded=0;entryX=0;entryY=0.5;entryDx=0;entryDy=0;" edge="1" parent="1" target="Plm5FXUOydwEj75dUL9J-12">
          <mxGeometry width="50" height="50" relative="1" as="geometry">
            <mxPoint x="340" y="320" as="sourcePoint" />
            <mxPoint x="390" y="270" as="targetPoint" />
          </mxGeometry>
        </mxCell>
      </root>
    </mxGraphModel>
  </diagram>
</mxfile>
